<mxfile host="app.diagrams.net" modified="2024-01-31T21:03:03.647Z" agent="Mozilla/5.0 (Macintosh; Intel Mac OS X 10_15_7) AppleWebKit/537.36 (KHTML, like Gecko) Chrome/121.0.0.0 Safari/537.36" version="23.1.0" etag="h1wh_qkYsPr_Kcu4TwfM" type="github">
  <diagram name="Page-1" id="d_xdefSguWR2lgGaZA_E">
    <mxGraphModel>
      <root>
        <mxCell id="0" />
        <mxCell id="1" parent="0" />
      </root>
    </mxGraphModel>
  </diagram>
</mxfile>
